<svg xmlns="http://www.w3.org/2000/svg" xmlns:xlink="http://www.w3.org/1999/xlink" width="500" zoomAndPan="magnify" viewBox="0 0 375 374.999991" height="500" preserveAspectRatio="xMidYMid meet" version="1.0"><path fill="#007ae6" d="M 187.507812 0 C 290.765625 0 375 84.234375 375 187.507812 C 375 290.777344 290.765625 375.007812 187.507812 375.007812 C 84.226562 375.007812 0 290.777344 0 187.507812 C 0 84.234375 84.226562 0 187.507812 0 " fill-opacity="1" fill-rule="evenodd"/><path fill="#ffffff" d="M 324.828125 239.359375 C 323.324219 243.328125 321.628906 247.246094 319.800781 251.042969 C 315.910156 259.089844 311.253906 266.789062 305.96875 273.945312 L 305.96875 273.957031 C 278.875 310.730469 234.953125 334.476562 187.507812 334.476562 L 187.4375 334.476562 C 176.316406 334.476562 165.480469 333.222656 155.0625 330.832031 L 162.339844 315.222656 C 170.464844 316.828125 178.835938 317.683594 187.4375 317.695312 L 187.507812 317.695312 C 201.917969 317.695312 215.980469 315.210938 229.1875 310.644531 L 197.121094 237.65625 L 206.339844 217.691406 L 245.125 303.914062 C 260.164062 296.375 273.699219 286 284.84375 273.472656 L 223.136719 140.359375 L 138.285156 325.933594 C 122.796875 320.394531 108.515625 312.308594 95.890625 302.222656 L 103.179688 286.570312 C 111.246094 293.4375 120.171875 299.347656 129.753906 304.113281 L 178.269531 197.761719 L 152.074219 141.042969 L 82.484375 290.117188 C 56.589844 263.632812 40.5625 227.441406 40.515625 187.648438 L 40.515625 187.4375 C 40.542969 147.011719 57.054688 110.261719 83.683594 83.640625 L 83.667969 83.621094 C 110.238281 57.050781 146.957031 40.554688 187.363281 40.511719 L 187.734375 40.511719 C 199.710938 40.53125 211.507812 42.074219 222.847656 44.957031 C 231.125 47.0625 239.210938 49.910156 246.949219 53.386719 C 282.269531 69.28125 310.929688 98.894531 324.839844 135.648438 L 306.765625 135.648438 C 293.714844 105.855469 269.496094 81.917969 240.0625 68.671875 C 233.238281 65.597656 226.078125 63.070312 218.726562 61.207031 C 208.753906 58.675781 198.335938 57.3125 187.738281 57.300781 L 187.363281 57.300781 C 151.597656 57.324219 119.089844 71.949219 95.542969 95.496094 L 95.503906 95.496094 C 71.9375 119.039062 57.3125 151.601562 57.300781 187.4375 L 57.300781 187.648438 C 57.324219 213.460938 64.960938 237.542969 78.039062 257.820312 L 151.863281 102.496094 L 187.597656 179.300781 L 223.484375 102.496094 L 296.910156 257.671875 C 299.796875 253.207031 302.410156 248.578125 304.722656 243.777344 C 305.433594 242.332031 306.128906 240.839844 306.777344 239.359375 " fill-opacity="1" fill-rule="nonzero"/></svg>