<svg xmlns="http://www.w3.org/2000/svg" xmlns:xlink="http://www.w3.org/1999/xlink" width="150" zoomAndPan="magnify" viewBox="0 0 112.5 56.249996" height="75" preserveAspectRatio="xMidYMid meet" version="1.0"><defs><g/><clipPath id="dea906af95"><path d="M 1.75 9.777344 L 38 9.777344 L 38 46 L 1.75 46 Z M 1.75 9.777344 " clip-rule="nonzero"/></clipPath></defs><g clip-path="url(#dea906af95)"><path fill="#007ae6" d="M 19.726562 9.777344 C 29.625 9.777344 37.703125 17.851562 37.703125 27.753906 C 37.703125 37.65625 29.625 45.730469 19.726562 45.730469 C 9.824219 45.730469 1.75 37.65625 1.75 27.753906 C 1.75 17.851562 9.824219 9.777344 19.726562 9.777344 " fill-opacity="1" fill-rule="evenodd"/></g><path fill="#ffffff" d="M 32.890625 32.726562 C 32.746094 33.105469 32.585938 33.484375 32.410156 33.847656 C 32.035156 34.617188 31.589844 35.355469 31.082031 36.042969 C 28.484375 39.570312 24.273438 41.847656 19.726562 41.847656 L 19.71875 41.847656 C 18.652344 41.847656 17.613281 41.726562 16.613281 41.496094 L 17.3125 40 C 18.089844 40.152344 18.894531 40.234375 19.71875 40.238281 L 19.726562 40.238281 C 21.109375 40.238281 22.457031 40 23.722656 39.5625 L 20.648438 32.5625 L 21.53125 30.648438 L 25.25 38.914062 C 26.691406 38.191406 27.988281 37.199219 29.058594 35.996094 L 23.140625 23.234375 L 15.007812 41.027344 C 13.523438 40.496094 12.152344 39.722656 10.941406 38.753906 L 11.640625 37.253906 C 12.414062 37.910156 13.269531 38.476562 14.1875 38.933594 L 18.839844 28.738281 L 16.328125 23.300781 L 9.65625 37.59375 C 7.175781 35.054688 5.636719 31.582031 5.632812 27.769531 L 5.632812 27.75 C 5.636719 23.871094 7.21875 20.347656 9.773438 17.796875 L 9.769531 17.792969 C 12.316406 15.246094 15.835938 13.664062 19.710938 13.660156 L 19.746094 13.660156 C 20.894531 13.664062 22.027344 13.8125 23.113281 14.085938 C 23.90625 14.289062 24.683594 14.5625 25.425781 14.894531 C 28.8125 16.417969 31.558594 19.257812 32.894531 22.78125 L 31.160156 22.78125 C 29.910156 19.925781 27.585938 17.632812 24.765625 16.359375 C 24.109375 16.066406 23.425781 15.824219 22.71875 15.644531 C 21.761719 15.402344 20.765625 15.273438 19.746094 15.269531 L 19.710938 15.269531 C 16.28125 15.273438 13.167969 16.675781 10.910156 18.933594 L 10.90625 18.933594 C 8.644531 21.191406 7.242188 24.3125 7.242188 27.75 L 7.242188 27.769531 C 7.246094 30.242188 7.976562 32.550781 9.230469 34.496094 L 16.308594 19.605469 L 19.734375 26.96875 L 23.175781 19.605469 L 30.214844 34.480469 C 30.492188 34.054688 30.742188 33.609375 30.964844 33.148438 C 31.03125 33.011719 31.097656 32.867188 31.160156 32.726562 " fill-opacity="1" fill-rule="nonzero"/><g fill="#b3daff" fill-opacity="1"><g transform="translate(39.258556, 32.520289)"><g><path d="M 4.875 -8.65625 C 5.519531 -8.65625 6.148438 -8.523438 6.765625 -8.265625 C 7.378906 -8.003906 7.90625 -7.65625 8.34375 -7.21875 L 7.078125 -5.71875 C 6.796875 -6.0625 6.460938 -6.332031 6.078125 -6.53125 C 5.691406 -6.726562 5.304688 -6.828125 4.921875 -6.828125 C 4.242188 -6.828125 3.675781 -6.585938 3.21875 -6.109375 C 2.757812 -5.628906 2.53125 -5.039062 2.53125 -4.34375 C 2.53125 -3.625 2.757812 -3.019531 3.21875 -2.53125 C 3.675781 -2.050781 4.242188 -1.8125 4.921875 -1.8125 C 5.273438 -1.8125 5.644531 -1.898438 6.03125 -2.078125 C 6.425781 -2.265625 6.773438 -2.515625 7.078125 -2.828125 L 8.359375 -1.46875 C 7.890625 -1 7.335938 -0.617188 6.703125 -0.328125 C 6.066406 -0.046875 5.4375 0.09375 4.8125 0.09375 C 3.519531 0.09375 2.441406 -0.320312 1.578125 -1.15625 C 0.722656 -2 0.296875 -3.050781 0.296875 -4.3125 C 0.296875 -5.550781 0.734375 -6.582031 1.609375 -7.40625 C 2.484375 -8.238281 3.570312 -8.65625 4.875 -8.65625 Z M 4.875 -8.65625 "/></g></g></g><g fill="#b3daff" fill-opacity="1"><g transform="translate(48.662835, 32.520289)"><g><path d="M 6.5625 -1.578125 L 2.8125 -1.578125 L 2.1875 0 L -0.0625 0 L 3.640625 -8.59375 L 5.890625 -8.59375 L 9.5 0 L 7.171875 0 Z M 5.921875 -3.234375 L 4.703125 -6.421875 L 3.453125 -3.234375 Z M 5.921875 -3.234375 "/></g></g></g><g fill="#b3daff" fill-opacity="1"><g transform="translate(59.023419, 32.520289)"><g><path d="M 4.15625 -8.6875 C 5.4375 -8.6875 6.566406 -8.367188 7.546875 -7.734375 L 6.71875 -6.015625 C 6.269531 -6.285156 5.785156 -6.503906 5.265625 -6.671875 C 4.753906 -6.835938 4.320312 -6.921875 3.96875 -6.921875 C 3.34375 -6.921875 3.03125 -6.710938 3.03125 -6.296875 C 3.03125 -6.023438 3.1875 -5.804688 3.5 -5.640625 C 3.8125 -5.472656 4.1875 -5.332031 4.625 -5.21875 C 5.070312 -5.101562 5.519531 -4.957031 5.96875 -4.78125 C 6.414062 -4.613281 6.789062 -4.34375 7.09375 -3.96875 C 7.40625 -3.59375 7.5625 -3.117188 7.5625 -2.546875 C 7.5625 -1.722656 7.238281 -1.078125 6.59375 -0.609375 C 5.945312 -0.148438 5.128906 0.078125 4.140625 0.078125 C 3.421875 0.078125 2.710938 -0.0390625 2.015625 -0.28125 C 1.328125 -0.53125 0.722656 -0.867188 0.203125 -1.296875 L 1.0625 -2.984375 C 1.488281 -2.609375 1.992188 -2.296875 2.578125 -2.046875 C 3.171875 -1.804688 3.695312 -1.6875 4.15625 -1.6875 C 4.507812 -1.6875 4.785156 -1.75 4.984375 -1.875 C 5.179688 -2.007812 5.28125 -2.195312 5.28125 -2.4375 C 5.28125 -2.675781 5.164062 -2.875 4.9375 -3.03125 C 4.707031 -3.195312 4.425781 -3.316406 4.09375 -3.390625 C 3.757812 -3.472656 3.394531 -3.578125 3 -3.703125 C 2.613281 -3.835938 2.25 -3.976562 1.90625 -4.125 C 1.570312 -4.28125 1.289062 -4.53125 1.0625 -4.875 C 0.84375 -5.21875 0.734375 -5.625 0.734375 -6.09375 C 0.734375 -6.882812 1.046875 -7.515625 1.671875 -7.984375 C 2.296875 -8.453125 3.125 -8.6875 4.15625 -8.6875 Z M 4.15625 -8.6875 "/></g></g></g><g fill="#b3daff" fill-opacity="1"><g transform="translate(67.839198, 32.520289)"><g><path d="M 8.78125 0 L 6.59375 0 L 6.59375 -3.34375 L 3.046875 -3.34375 L 3.046875 0 L 0.859375 0 L 0.859375 -8.59375 L 3.046875 -8.59375 L 3.046875 -5.046875 L 6.59375 -5.046875 L 6.59375 -8.59375 L 8.78125 -8.59375 Z M 8.78125 0 "/></g></g></g><g fill="#ffffff" fill-opacity="1"><g transform="translate(78.399951, 32.520289)"><g><path d="M 10.296875 0 L 8.359375 0 L 8.359375 -5.578125 L 6.296875 -0.859375 L 4.875 -0.859375 L 2.8125 -5.578125 L 2.8125 0 L 0.859375 0 L 0.859375 -8.59375 L 3.25 -8.59375 L 5.578125 -3.484375 L 7.90625 -8.59375 L 10.296875 -8.59375 Z M 10.296875 0 "/></g></g></g><g fill="#ffffff" fill-opacity="1"><g transform="translate(90.476978, 32.520289)"><g><path d="M 6.5625 -1.578125 L 2.8125 -1.578125 L 2.1875 0 L -0.0625 0 L 3.640625 -8.59375 L 5.890625 -8.59375 L 9.5 0 L 7.171875 0 Z M 5.921875 -3.234375 L 4.703125 -6.421875 L 3.453125 -3.234375 Z M 5.921875 -3.234375 "/></g></g></g><g fill="#ffffff" fill-opacity="1"><g transform="translate(100.837561, 32.520289)"><g><path d="M 0.859375 -8.59375 L 4.59375 -8.59375 C 5.695312 -8.59375 6.550781 -8.332031 7.15625 -7.8125 C 7.757812 -7.289062 8.0625 -6.550781 8.0625 -5.59375 C 8.0625 -4.582031 7.757812 -3.800781 7.15625 -3.25 C 6.550781 -2.695312 5.695312 -2.421875 4.59375 -2.421875 L 3.046875 -2.421875 L 3.046875 0 L 0.859375 0 Z M 3.046875 -6.875 L 3.046875 -4.140625 L 4.484375 -4.140625 C 4.972656 -4.140625 5.347656 -4.253906 5.609375 -4.484375 C 5.867188 -4.722656 6 -5.066406 6 -5.515625 C 6 -5.960938 5.867188 -6.300781 5.609375 -6.53125 C 5.347656 -6.757812 4.972656 -6.875 4.484375 -6.875 Z M 3.046875 -6.875 "/></g></g></g></svg>