<svg xmlns="http://www.w3.org/2000/svg" xmlns:xlink="http://www.w3.org/1999/xlink" width="200" zoomAndPan="magnify" viewBox="0 0 150 74.999997" height="100" preserveAspectRatio="xMidYMid meet" version="1.0"><defs><g/><clipPath id="cb30c11e3c"><path d="M 22.785156 20.199219 L 57.285156 20.199219 L 57.285156 54.699219 L 22.785156 54.699219 Z M 22.785156 20.199219 " clip-rule="nonzero"/></clipPath></defs><g clip-path="url(#cb30c11e3c)"><path fill="#007ae6" d="M 40.082031 20.199219 C 49.605469 20.199219 57.378906 27.96875 57.378906 37.496094 C 57.378906 47.023438 49.605469 54.792969 40.082031 54.792969 C 30.554688 54.792969 22.785156 47.023438 22.785156 37.496094 C 22.785156 27.96875 30.554688 20.199219 40.082031 20.199219 " fill-opacity="1" fill-rule="evenodd"/></g><path fill="#ffffff" d="M 52.75 42.277344 C 52.609375 42.644531 52.453125 43.007812 52.285156 43.355469 C 51.925781 44.097656 51.496094 44.808594 51.007812 45.46875 C 48.511719 48.863281 44.457031 51.054688 40.082031 51.054688 L 40.074219 51.054688 C 39.050781 51.054688 38.050781 50.9375 37.089844 50.71875 L 37.761719 49.277344 C 38.507812 49.425781 39.28125 49.503906 40.074219 49.503906 L 40.082031 49.503906 C 41.410156 49.503906 42.707031 49.277344 43.925781 48.855469 L 40.96875 42.121094 L 41.820312 40.28125 L 45.398438 48.234375 C 46.785156 47.539062 48.03125 46.582031 49.0625 45.425781 L 43.367188 33.144531 L 35.539062 50.265625 C 34.113281 49.753906 32.792969 49.007812 31.628906 48.078125 L 32.300781 46.632812 C 33.046875 47.269531 33.871094 47.8125 34.753906 48.253906 L 39.230469 38.441406 L 36.8125 33.210938 L 30.394531 46.960938 C 28.003906 44.519531 26.527344 41.179688 26.523438 37.507812 L 26.523438 37.488281 C 26.523438 33.761719 28.046875 30.371094 30.503906 27.914062 C 32.953125 25.460938 36.339844 23.9375 40.066406 23.933594 L 40.101562 23.933594 C 41.207031 23.9375 42.296875 24.078125 43.339844 24.34375 C 44.105469 24.539062 44.851562 24.800781 45.566406 25.121094 C 48.824219 26.589844 51.46875 29.320312 52.75 32.710938 L 51.082031 32.710938 C 49.878906 29.964844 47.644531 27.753906 44.929688 26.53125 C 44.300781 26.25 43.640625 26.015625 42.960938 25.84375 C 42.042969 25.609375 41.082031 25.484375 40.101562 25.484375 L 40.070312 25.484375 C 36.769531 25.484375 33.769531 26.835938 31.597656 29.007812 L 31.59375 29.007812 C 29.421875 31.179688 28.070312 34.183594 28.070312 37.488281 L 28.070312 37.507812 C 28.074219 39.890625 28.777344 42.113281 29.984375 43.980469 L 36.792969 29.652344 L 40.089844 36.738281 L 43.402344 29.652344 L 50.175781 43.96875 C 50.441406 43.554688 50.679688 43.128906 50.894531 42.6875 C 50.960938 42.554688 51.023438 42.414062 51.085938 42.277344 " fill-opacity="1" fill-rule="nonzero"/><g fill="#b3daff" fill-opacity="1"><g transform="translate(58.884658, 42.086238)"><g><path d="M 4.6875 -8.328125 C 5.300781 -8.328125 5.90625 -8.203125 6.5 -7.953125 C 7.09375 -7.703125 7.597656 -7.363281 8.015625 -6.9375 L 6.8125 -5.5 C 6.539062 -5.832031 6.21875 -6.09375 5.84375 -6.28125 C 5.46875 -6.476562 5.097656 -6.578125 4.734375 -6.578125 C 4.078125 -6.578125 3.53125 -6.34375 3.09375 -5.875 C 2.65625 -5.414062 2.4375 -4.847656 2.4375 -4.171875 C 2.4375 -3.484375 2.65625 -2.90625 3.09375 -2.4375 C 3.53125 -1.976562 4.078125 -1.75 4.734375 -1.75 C 5.078125 -1.75 5.4375 -1.832031 5.8125 -2 C 6.1875 -2.175781 6.519531 -2.414062 6.8125 -2.71875 L 8.03125 -1.421875 C 7.582031 -0.960938 7.050781 -0.59375 6.4375 -0.3125 C 5.832031 -0.0390625 5.226562 0.09375 4.625 0.09375 C 3.382812 0.09375 2.347656 -0.304688 1.515625 -1.109375 C 0.691406 -1.921875 0.28125 -2.9375 0.28125 -4.15625 C 0.28125 -5.34375 0.703125 -6.332031 1.546875 -7.125 C 2.390625 -7.925781 3.4375 -8.328125 4.6875 -8.328125 Z M 4.6875 -8.328125 "/></g></g></g><g fill="#b3daff" fill-opacity="1"><g transform="translate(67.935455, 42.086238)"><g><path d="M 6.3125 -1.515625 L 2.703125 -1.515625 L 2.09375 0 L -0.0625 0 L 3.5 -8.265625 L 5.65625 -8.265625 L 9.140625 0 L 6.90625 0 Z M 5.703125 -3.109375 L 4.515625 -6.171875 L 3.3125 -3.109375 Z M 5.703125 -3.109375 "/></g></g></g><g fill="#b3daff" fill-opacity="1"><g transform="translate(77.906613, 42.086238)"><g><path d="M 4 -8.359375 C 5.226562 -8.359375 6.3125 -8.050781 7.25 -7.4375 L 6.46875 -5.796875 C 6.03125 -6.046875 5.5625 -6.25 5.0625 -6.40625 C 4.570312 -6.570312 4.160156 -6.65625 3.828125 -6.65625 C 3.210938 -6.65625 2.90625 -6.453125 2.90625 -6.046875 C 2.90625 -5.785156 3.054688 -5.578125 3.359375 -5.421875 C 3.660156 -5.265625 4.023438 -5.128906 4.453125 -5.015625 C 4.878906 -4.898438 5.304688 -4.757812 5.734375 -4.59375 C 6.160156 -4.4375 6.523438 -4.175781 6.828125 -3.8125 C 7.128906 -3.457031 7.28125 -3.003906 7.28125 -2.453125 C 7.28125 -1.660156 6.96875 -1.039062 6.34375 -0.59375 C 5.726562 -0.144531 4.9375 0.078125 3.96875 0.078125 C 3.289062 0.078125 2.613281 -0.0390625 1.9375 -0.28125 C 1.269531 -0.519531 0.691406 -0.84375 0.203125 -1.25 L 1.015625 -2.859375 C 1.429688 -2.503906 1.921875 -2.207031 2.484375 -1.96875 C 3.054688 -1.738281 3.5625 -1.625 4 -1.625 C 4.332031 -1.625 4.59375 -1.6875 4.78125 -1.8125 C 4.976562 -1.9375 5.078125 -2.113281 5.078125 -2.34375 C 5.078125 -2.570312 4.96875 -2.765625 4.75 -2.921875 C 4.53125 -3.078125 4.257812 -3.191406 3.9375 -3.265625 C 3.613281 -3.335938 3.265625 -3.4375 2.890625 -3.5625 C 2.515625 -3.6875 2.164062 -3.820312 1.84375 -3.96875 C 1.519531 -4.125 1.25 -4.363281 1.03125 -4.6875 C 0.8125 -5.007812 0.703125 -5.398438 0.703125 -5.859375 C 0.703125 -6.617188 1.003906 -7.222656 1.609375 -7.671875 C 2.210938 -8.128906 3.007812 -8.359375 4 -8.359375 Z M 4 -8.359375 "/></g></g></g><g fill="#b3daff" fill-opacity="1"><g transform="translate(86.391031, 42.086238)"><g><path d="M 8.453125 0 L 6.34375 0 L 6.34375 -3.203125 L 2.921875 -3.203125 L 2.921875 0 L 0.828125 0 L 0.828125 -8.265625 L 2.921875 -8.265625 L 2.921875 -4.859375 L 6.34375 -4.859375 L 6.34375 -8.265625 L 8.453125 -8.265625 Z M 8.453125 0 "/></g></g></g><g fill="#ffffff" fill-opacity="1"><g transform="translate(96.554834, 42.086238)"><g><path d="M 9.890625 0 L 8.046875 0 L 8.03125 -5.375 L 6.046875 -0.828125 L 4.6875 -0.828125 L 2.703125 -5.375 L 2.703125 0 L 0.828125 0 L 0.828125 -8.265625 L 3.125 -8.265625 L 5.375 -3.34375 L 7.609375 -8.265625 L 9.890625 -8.265625 Z M 9.890625 0 "/></g></g></g><g fill="#ffffff" fill-opacity="1"><g transform="translate(108.177918, 42.086238)"><g><path d="M 6.3125 -1.515625 L 2.703125 -1.515625 L 2.09375 0 L -0.0625 0 L 3.5 -8.265625 L 5.65625 -8.265625 L 9.140625 0 L 6.90625 0 Z M 5.703125 -3.109375 L 4.515625 -6.171875 L 3.3125 -3.109375 Z M 5.703125 -3.109375 "/></g></g></g><g fill="#ffffff" fill-opacity="1"><g transform="translate(118.149075, 42.086238)"><g><path d="M 0.828125 -8.265625 L 4.421875 -8.265625 C 5.472656 -8.265625 6.289062 -8.015625 6.875 -7.515625 C 7.457031 -7.015625 7.75 -6.300781 7.75 -5.375 C 7.75 -4.40625 7.457031 -3.65625 6.875 -3.125 C 6.289062 -2.59375 5.472656 -2.328125 4.421875 -2.328125 L 2.921875 -2.328125 L 2.921875 0 L 0.828125 0 Z M 2.921875 -6.609375 L 2.921875 -3.96875 L 4.3125 -3.96875 C 4.78125 -3.96875 5.140625 -4.082031 5.390625 -4.3125 C 5.640625 -4.539062 5.765625 -4.875 5.765625 -5.3125 C 5.765625 -5.738281 5.640625 -6.0625 5.390625 -6.28125 C 5.140625 -6.5 4.78125 -6.609375 4.3125 -6.609375 Z M 2.921875 -6.609375 "/></g></g></g></svg>